<svg width="43" height="43" viewBox="0 0 43 43" fill="none" xmlns="http://www.w3.org/2000/svg">
<g clip-path="url(#clip0_26_1619)">
<path d="M3.8252 37.5622C1.73012 37.5622 0.000854492 35.8662 0.000854492 33.7379V3.908C0.000854492 1.81292 1.69687 0.0836487 3.8252 0.0836487H31.8926C33.9877 0.0836487 35.7169 1.77966 35.7169 3.908V18.0082L35.5839 17.9749C35.0186 17.8087 34.4865 17.7422 33.8879 17.7422H33.8546L33.8214 17.6424H33.7216V3.908C33.7216 2.94359 32.857 2.07896 31.8926 2.07896H3.8252C2.8608 2.07896 1.99617 2.94359 1.99617 3.908V33.7379C1.99617 34.7023 2.8608 35.5669 3.8252 35.5669H18.5573L18.5905 35.6002C18.9563 36.099 18.7568 36.4648 18.6238 36.7309C18.4907 36.9637 18.4242 37.1299 18.657 37.3627L18.8565 37.5622H3.8252Z" fill="#6AD8FF"/>
<path d="M5.98676 7.3998C5.62095 7.3998 5.32166 6.93423 5.32166 6.36889C5.32166 5.80355 5.62095 5.33798 5.98676 5.33798H17.2935C17.6593 5.33798 17.9586 5.80355 17.9586 6.36889C17.9586 6.93423 17.6593 7.3998 17.2935 7.3998H5.98676Z" fill="#6AD8FF"/>
<path d="M17.2935 5.43774H5.98676C5.68746 5.43774 5.42142 5.83681 5.42142 6.36889C5.42142 6.90097 5.68746 7.30003 5.98676 7.30003H17.2935C17.5928 7.30003 17.8589 6.90097 17.8589 6.36889C17.8589 5.83681 17.6261 5.43774 17.2935 5.43774ZM5.85374 12.7206C5.55444 12.7206 5.32166 12.2883 5.32166 11.6897C5.32166 11.0911 5.55444 10.6588 5.85374 10.6588H13.968C14.2673 10.6588 14.5001 11.0911 14.5001 11.6897C14.5001 12.2883 14.2673 12.7206 13.968 12.7206H5.85374Z" fill="#6AD8FF"/>
<path d="M13.968 10.7586H5.85377C5.62099 10.7586 5.45471 11.1576 5.45471 11.6897C5.45471 12.2218 5.62099 12.6209 5.85377 12.6209H13.968C14.2008 12.6209 14.3671 12.2218 14.3671 11.6897C14.3671 11.1576 14.1676 10.7586 13.968 10.7586ZM30.7287 42.9163C29.5647 42.9163 28.301 42.8498 26.6715 42.7168C24.3104 42.5173 22.1488 41.4198 20.0537 39.3913L10.6093 30.1463C8.41442 28.018 8.31466 25.2246 10.2767 23.0962C11.1081 22.2316 12.405 21.6995 13.8018 21.6995C15.1985 21.6995 16.4622 22.2316 17.2603 23.1627C17.2936 23.196 17.3601 23.2625 17.4931 23.329C17.5263 23.3623 17.5929 23.3955 17.6261 23.4288V18.9726V16.7778C17.6261 15.0817 17.6261 13.3525 17.6594 11.6565C17.6926 9.12906 19.6547 7.20026 22.2486 7.20026H22.2818C24.776 7.20026 26.6715 9.02929 26.8045 11.5234C26.8378 12.0888 26.8378 12.6874 26.8045 13.286V14.0508H27.3034C29.0326 14.0508 30.3628 14.6494 31.3272 15.9131C31.3605 15.9796 31.56 16.0461 31.8261 16.0461C31.9258 16.0461 32.0256 16.0461 32.0921 16.0129C32.3914 15.9796 32.6907 15.9464 32.9568 15.9464C34.287 15.9464 35.4509 16.4785 36.4485 17.5759C36.6148 17.7422 36.9806 17.8752 37.3132 17.8752H37.4462C37.679 17.8419 37.945 17.8087 38.1778 17.8087C40.672 17.8087 42.6673 19.5712 42.7005 21.8658C42.8003 26.0892 42.8668 30.2461 42.4012 34.3697C41.8359 39.358 39.1755 42.0184 33.9877 42.6835C33.0233 42.8498 31.9258 42.9163 30.7287 42.9163ZM13.6355 23.5951C12.9371 23.5951 12.272 23.8611 11.7732 24.3267C11.1746 24.9253 10.8421 25.6236 10.8421 26.3885C10.8421 27.1866 11.2079 27.9848 11.873 28.6499L13.1367 29.9136C15.8968 32.6405 18.7568 35.4339 21.6167 38.1941C23.0134 39.5243 24.6097 40.3889 26.3722 40.7215C27.7357 40.9875 29.0991 41.1205 30.4294 41.1205C31.6265 41.1205 32.8237 41.0208 33.9877 40.788C38.2111 40.0231 40.1399 37.9946 40.5389 34.0704C40.9047 30.3126 40.8715 26.455 40.805 22.7304V22.1318C40.7717 20.7684 39.8073 19.8372 38.4439 19.8372C38.0781 19.8372 37.7455 19.9037 37.3797 20.0368V25.2246C37.3797 25.6901 37.3797 26.588 36.4485 26.588H36.4153C36.116 26.588 35.8832 26.5215 35.7502 26.3552C35.4841 26.0892 35.4509 25.5904 35.4509 25.1913V24.9918C35.4509 23.462 35.4841 21.8991 35.4509 20.3361C35.4176 18.9726 34.4532 18.0082 33.123 18.0082C32.7905 18.0082 32.4579 18.0747 32.1586 18.1745V23.5618C32.1586 24.0274 32.0589 24.3932 31.8261 24.626C31.6598 24.7922 31.427 24.892 31.1277 24.892H31.0945C30.1966 24.8588 30.1966 23.9276 30.1966 23.5951V21.4002V18.6068C30.1966 17.9749 29.9305 17.3098 29.4317 16.811C28.9661 16.3454 28.3343 16.0794 27.7024 16.0794C27.4364 16.0794 27.1371 16.1126 26.8711 16.2124V18.6068C26.8711 19.7375 26.871 20.9346 26.8045 22.0986C26.7713 22.3979 26.5052 22.6307 26.2392 22.8634C26.1394 22.9632 26.0064 23.063 25.9067 23.1627L25.8069 23.2625L25.7404 23.0962C25.6739 22.9965 25.5741 22.8967 25.4743 22.8302C25.2748 22.5974 25.042 22.3646 24.909 22.0986C24.8092 21.899 24.8425 21.6663 24.8425 21.4667V21.2007V18.3075C24.8425 16.1792 24.8425 13.9843 24.8092 11.8227C24.8092 10.2265 23.7783 9.16231 22.2818 9.12906C20.6523 9.12906 19.5549 10.293 19.5549 11.989V27.6522L19.1226 27.9182L19.0893 27.8517C18.79 27.5192 18.4575 27.1866 18.1582 26.8541C17.4598 26.1225 16.7282 25.3243 15.9966 24.5927C15.3315 23.9609 14.5001 23.5951 13.6355 23.5951Z" fill="#6AD8FF"/>
</g>
<defs>
<clipPath id="clip0_26_1619">
<rect width="43" height="43" fill="white"/>
</clipPath>
</defs>
</svg>
