<svg width="44" height="44" viewBox="0 0 44 44" fill="none" xmlns="http://www.w3.org/2000/svg">
<path d="M37.6024 1H29.506C26.5249 1 24.1084 3.41658 24.1084 6.3976V14.494C24.1084 17.475 26.5249 19.8916 29.506 19.8916H37.6024C40.5835 19.8916 43 17.475 43 14.494V6.3976C43 3.41658 40.5835 1 37.6024 1Z" stroke="#6AD8FF" stroke-width="2" stroke-linecap="round" stroke-linejoin="round"/>
<path d="M14.494 1H6.39759C3.41658 1 1 3.41658 1 6.3976V14.494C1 17.475 3.41658 19.8916 6.39759 19.8916H14.494C17.475 19.8916 19.8916 17.475 19.8916 14.494V6.3976C19.8916 3.41658 17.475 1 14.494 1Z" stroke="#6AD8FF" stroke-width="2" stroke-linecap="round" stroke-linejoin="round"/>
<path d="M37.6024 24.1084H29.506C26.5249 24.1084 24.1084 26.5249 24.1084 29.506V37.6024C24.1084 40.5835 26.5249 43 29.506 43H37.6024C40.5835 43 43 40.5835 43 37.6024V29.506C43 26.5249 40.5835 24.1084 37.6024 24.1084Z" stroke="#6AD8FF" stroke-width="2" stroke-linecap="round" stroke-linejoin="round"/>
<path d="M14.494 24.1084H6.39759C3.41658 24.1084 1 26.5249 1 29.506V37.6024C1 40.5835 3.41658 43 6.39759 43H14.494C17.475 43 19.8916 40.5835 19.8916 37.6024V29.506C19.8916 26.5249 17.475 24.1084 14.494 24.1084Z" stroke="#6AD8FF" stroke-width="2" stroke-linecap="round" stroke-linejoin="round"/>
</svg>
