<svg width="44" height="43" viewBox="0 0 44 43" fill="none" xmlns="http://www.w3.org/2000/svg">
<g clip-path="url(#clip0_26_1624)">
<g clip-path="url(#clip1_26_1624)">
<path d="M2.65924 20.3034C1.88899 20.3034 1.25714 19.6947 1.25714 18.9455C1.25714 18.8987 1.25714 18.8519 1.26316 18.805C1.79872 13.6136 4.28398 8.84358 8.2616 5.36116C12.2091 1.90216 17.3 0 22.5955 0C23.3116 0 24.0397 0.0351168 24.7558 0.10535C29.9008 0.608691 34.6908 2.89714 38.2352 6.56099L39.2762 7.63205V4.29595C39.2702 3.93308 39.4146 3.58777 39.6734 3.32439C39.9381 3.06101 40.2872 2.91469 40.6602 2.91469H40.6783C40.7445 2.91469 40.8107 2.92055 40.8769 2.9264C41.587 3.06687 42.0984 3.68141 42.0804 4.3896V11.132C42.0804 11.887 41.4485 12.4957 40.6783 12.4957H33.6317C32.8675 12.4957 32.2356 11.8929 32.2296 11.1437C32.2296 11.0735 32.2356 11.0033 32.2417 10.933C32.3861 10.2541 32.9999 9.76247 33.716 9.76247H33.7521H37.4108L36.5081 8.78505C32.9818 4.96317 27.921 2.76837 22.6316 2.76837C18.0281 2.76837 13.6052 4.41886 10.1752 7.40964C6.71509 10.4355 4.54876 14.5735 4.07939 19.0684C4.00717 19.7708 3.40542 20.2975 2.68331 20.2975H2.65924V20.3034Z" fill="#6AD8FF"/>
<path d="M22.6677 41.7714C21.9516 41.7714 21.2234 41.7363 20.5074 41.6661C15.3623 41.1627 10.5723 38.8743 7.02798 35.2104L5.98694 34.1394V37.4755C5.99296 38.2305 5.37315 38.8509 4.59688 38.8567H4.57883C4.51264 38.8567 4.44644 38.8509 4.38025 38.845C3.67017 38.7046 3.15868 38.09 3.17673 37.3818V30.6394C3.17673 29.8844 3.80858 29.2757 4.57883 29.2757H11.6254C12.3896 29.2757 13.0215 29.8785 13.0275 30.6277C13.0275 30.6979 13.0215 30.7682 13.0155 30.8384C12.871 31.5173 12.2573 32.009 11.5412 32.009H11.5051H7.84637L8.74901 32.9864C12.2813 36.8141 17.3421 39.0089 22.6376 39.0089C27.241 39.0089 31.6639 37.3584 35.094 34.3676C38.5541 31.3476 40.7144 27.2038 41.1898 22.7089C41.262 22.0065 41.8637 21.4798 42.5858 21.4798H42.6039C43.3742 21.4798 44.006 22.0885 44.006 22.8376C44.006 22.8844 44.006 22.9313 44 22.9839C43.4644 28.1695 40.9852 32.9395 37.0015 36.422C33.048 39.8693 27.9571 41.7714 22.6677 41.7714Z" fill="#6AD8FF"/>
<path d="M22.6316 32.9805C21.8553 32.9805 21.2295 32.366 21.2295 31.6168V28.9831L20.7361 28.8953C19.2858 28.6377 17.8777 28.0642 16.6682 27.2389C16.6501 27.2272 16.6381 27.2155 16.62 27.2038C16.1146 26.7883 16.0484 26.0508 16.4756 25.5533L16.4997 25.5241L16.5238 25.4889C16.5298 25.4772 16.5358 25.4714 16.5418 25.4597C16.8006 25.0792 17.2398 24.851 17.7152 24.851C17.986 24.851 18.2508 24.9271 18.4795 25.0734C19.7432 25.9747 21.2355 26.4488 22.8001 26.4488C22.8482 26.4488 22.8904 26.4488 22.9385 26.4488C23.6787 26.4488 24.4248 26.2381 25.0386 25.8577C25.6765 25.4597 26.0436 24.968 26.0436 24.4998C26.0436 23.4873 25.4057 22.744 22.2405 22.1704C20.7 21.8895 19.1655 21.234 18.0402 20.3736C17.2098 19.7356 16.2169 18.6997 16.2169 17.3828C16.2169 16.2532 16.6321 15.2407 17.4264 14.4506C18.2267 13.6487 19.3701 13.1103 20.73 12.8879L21.2355 12.8059V10.1663C21.2355 9.4113 21.8674 8.80261 22.6376 8.80261C23.4139 8.80261 24.0397 9.41716 24.0397 10.1663V12.8937L24.5332 12.9815C25.5622 13.1688 26.537 13.5375 27.4276 14.0701C27.4637 14.0935 27.4998 14.117 27.5299 14.1462C27.7947 14.3628 27.9632 14.6671 27.9933 15.0066C28.0233 15.346 27.915 15.6738 27.6924 15.9313L27.6563 15.9723L27.6322 16.0191C27.6021 16.0718 27.56 16.1303 27.5179 16.1771C27.2892 16.4522 26.9462 16.6102 26.5851 16.6102C26.3083 16.6102 26.0436 16.5166 25.8269 16.3469L25.7908 16.3176L25.7547 16.2942C24.6776 15.6621 23.444 15.3343 22.1923 15.3343H22.1502C22.084 15.3285 22.0118 15.3285 21.9456 15.3285C21.2837 15.3285 20.6277 15.4865 20.044 15.7909L19.9658 15.8318L19.9056 15.8904C19.8635 15.9313 19.8274 15.9664 19.7853 16.0016C19.5205 16.2415 19.2256 16.5166 19.2256 17.1838C19.2256 18.2139 19.8455 18.8577 23.2213 19.5132C24.3586 19.7415 26.0195 20.1453 27.2471 20.9706C28.4626 21.79 29.0584 22.8786 29.0584 24.3067V24.3125C29.0704 25.6587 28.4145 26.9404 27.2952 27.7364L27.2832 27.7423L27.2772 27.7481C26.4889 28.3568 25.5501 28.7548 24.5572 28.8953L24.0457 28.9714V31.6227C24.0337 32.3718 23.4018 32.9805 22.6316 32.9805Z" fill="#6AD8FF"/>
</g>
</g>
<defs>
<clipPath id="clip0_26_1624">
<rect width="44" height="43" fill="white"/>
</clipPath>
<clipPath id="clip1_26_1624">
<rect width="42.7429" height="41.7714" fill="white" transform="translate(1.25714)"/>
</clipPath>
</defs>
</svg>
